<svg 
    xmlns="http://www.w3.org/2000/svg" 
    viewBox="0 0 24 24" 
    width="48px" 
    height="48px">
    <path d="M 19.4 13 l 0 0 c 0 -0.3 0.1 -0.7 0.1 -1 c 0 -0.3 0 -0.7 -0.1 -1 l 0 0 l 2.4 -1.9 l -2.4 -4.2 l -2.9 1.2 l 0 0 c -0.5 -0.4 -1.1 -0.7 -1.7 -1 h 0 L 14.4 2 H 9.6 l -0.4 3.1 h 0 c -0.6 0.3 -1.2 0.6 -1.7 1 l 0 0 l -2.9 -1.2 l -2.4 4.2 l 2.4 1.9 l 0 0 c 0 0.3 -0.1 0.7 -0.1 1 c 0 0.3 0 0.7 0.1 1 l 0 0 l -2.1 1.6 l -0.3 0.3 l 2.4 4.2 l 2.9 -1.1 l 0 0 c 0.5 0.4 1.1 0.8 1.7 1 h 0 L 9.6 22 h 4.8 s 0 -0.2 0.1 -0.4 l 0.4 -2.6 h 0 c 0.6 -0.3 1.2 -0.6 1.7 -1 l 0 0 l 2.9 1.1 l 2.4 -4.2 s -0.1 -0.1 -0.3 -0.3 l -2.1 -1.7 z M 12 15.5 c -1.9 0 -3.5 -1.6 -3.5 -3.5 s 1.6 -3.5 3.5 -3.5 s 3.5 1.6 3.5 3.5 s -1.6 3.5 -3.5 3.5 z"/>
</svg>